<svg xmlns="http://www.w3.org/2000/svg" viewBox="0 0 297.02 100.15"><defs><style>.cls-1{fill:#121d5f;}.cls-2{fill:#00a84b;}</style></defs><title>cboe_logo</title><g id="Layer_2" data-name="Layer 2"><g id="Layer_1-2" data-name="Layer 1"><path class="cls-1" d="M133.93,33.44a30.83,30.83,0,0,0-19,6V9.2H102.65V98.92h10.71l.78-5.05c5.18,4.18,12,6.29,19.92,6.29,9.17,0,16.95-3.18,22.46-9s8.57-14.38,8.57-24.32C165.1,47.06,153.31,33.44,133.93,33.44Zm0,56.14c-10.76,0-17.44-8.73-17.44-22.78S123.22,44,134.07,44c11.09,0,17.44,9.24,17.44,22.78C151.51,80.61,144.94,89.58,133.93,89.58Z"/><path class="cls-1" d="M199.5,33.44c-9.12,0-16.88,3.14-22.46,9.09s-8.57,14.38-8.57,24.27c0,20.26,9.86,33.36,31.17,33.36,9.13,0,16.9-3.13,22.46-9s8.57-14.38,8.57-24.32C230.67,46.53,218.44,33.44,199.5,33.44Zm0,56.14c-10.76,0-17.44-8.73-17.44-22.78S188.8,44,199.64,44s17.44,8.73,17.44,22.78S210.35,89.58,199.5,89.58Z"/><path class="cls-1" d="M247.22,69.9c.14,12.89,6.75,19.67,18.67,19.67a28.31,28.31,0,0,0,19.35-7.19L290.58,91s-8.45,9-26.19,9S234,87.86,234,66.93s13.16-33.39,30.34-33.39,27.3,12.89,27.3,31.18l-.14,5.12Zm16.73-26.57c-11.15,0-16.07,9.21-16.73,17h32.13C279.35,51.63,275,43.33,263.95,43.33Z"/><polygon class="cls-2" points="79.22 39.39 71.17 31.34 75.27 27.24 79.22 23.28 87.28 31.34 79.22 39.39"/><polygon class="cls-2" points="79.23 16.11 71.18 8.06 75.78 3.45 79.23 0 87.29 8.06 79.23 16.11"/><polygon class="cls-2" points="90.87 27.76 82.81 19.7 87.29 15.23 90.87 11.65 98.93 19.7 90.87 27.76"/><path class="cls-1" d="M43.72,87.75C25.74,87.75,14,73.27,14,52.07S26.32,16.39,44.16,16.39c13.08,0,18.89,6.62,23.44,11.36l8-8.07C71.33,15.29,62.78,4.54,43.72,4.54,20.18,4.54,0,22.24,0,52.22S18.13,100,43.14,100c18.58,0,28.68-9.85,32.64-14.91l-8.36-8.36A30.88,30.88,0,0,1,43.72,87.75Z"/><path class="cls-1" d="M294.33,38.85a2.61,2.61,0,0,1-1.88-.78,2.76,2.76,0,0,1-.58-.88,3.14,3.14,0,0,1,0-2.27,2.76,2.76,0,0,1,.58-.88,2.61,2.61,0,0,1,1.88-.78,2.67,2.67,0,0,1,1,.21,2.57,2.57,0,0,1,.85.58,2.76,2.76,0,0,1,.58.88,3.14,3.14,0,0,1,0,2.27,2.76,2.76,0,0,1-.58.88,2.57,2.57,0,0,1-.85.58A2.67,2.67,0,0,1,294.33,38.85Zm0-.53a2.13,2.13,0,0,0,.83-.16,2,2,0,0,0,.67-.46,2.16,2.16,0,0,0,.45-.72,2.55,2.55,0,0,0,.16-.93,2.5,2.5,0,0,0-.16-.92,2.25,2.25,0,0,0-.45-.72,2,2,0,0,0-.67-.48,2.06,2.06,0,0,0-.83-.17,2,2,0,0,0-.84.17,2,2,0,0,0-.66.48,2.36,2.36,0,0,0-.44.72,2.5,2.5,0,0,0-.16.92,2.55,2.55,0,0,0,.16.93,2.27,2.27,0,0,0,.44.72,1.92,1.92,0,0,0,.66.46A2.11,2.11,0,0,0,294.33,38.33Zm-1-.87V34.58h1.08a1.44,1.44,0,0,1,.78.21.78.78,0,0,1,.33.72.87.87,0,0,1-.14.48.74.74,0,0,1-.38.31l.65,1.18H295l-.5-1h-.58v1Zm.58-1.45h.37c.41,0,.61-.16.61-.48a.46.46,0,0,0-.13-.34.64.64,0,0,0-.45-.13h-.4Z"/></g></g></svg>